<svg id="57891fc8-f0b9-46c7-8ecf-b8cf1e02ba1b" data-name="81ba2f44-eb2b-40ce-b4cc-737e6c04e98b" xmlns="http://www.w3.org/2000/svg" viewBox="0 0 50 50"><title>i</title><path d="M42.88822,16.85233c.02539.35533.02539.71074.02539,1.06607,0,10.83809-8.24912,23.32611-23.32611,23.32611A23.16794,23.16794,0,0,1,6.998,37.56416a16.9603,16.9603,0,0,0,1.97979.10149A16.419,16.419,0,0,0,19.156,34.163a8.21287,8.21287,0,0,1-7.66542-5.68562,10.33892,10.33892,0,0,0,1.54837.12688,8.67094,8.67094,0,0,0,2.15746-.27916,8.19951,8.19951,0,0,1-6.574-8.04614v-.10149a8.25664,8.25664,0,0,0,3.70575,1.0406A8.21062,8.21062,0,0,1,9.78993,10.253a23.30365,23.30365,0,0,0,16.90443,8.57914,9.255,9.255,0,0,1-.20306-1.87823,8.20623,8.20623,0,0,1,14.18858-5.60944,16.14113,16.14113,0,0,0,5.20333-1.97979,8.17627,8.17627,0,0,1-3.60426,4.518A16.43541,16.43541,0,0,0,47,12.61359a17.62334,17.62334,0,0,1-4.11178,4.23875Z"/></svg>